<svg width="315" height="52" viewBox="0 0 315 52" fill="none" xmlns="http://www.w3.org/2000/svg">
<g clip-path="url(#clip0_109_5002)">
<path d="M4.4538 0.0196078L18.0282 13.7647L4.4538 27.5098L0 23L9.15934 13.7059L0.0580931 4.4902L4.49253 0" fill="#EC7F71"/>
<path d="M48.3334 15.8628H39.9293L38.0316 21.1373H35.0495L42.2918 2.29419H46.0678L53.252 21.1177H50.2118L48.3141 15.8432L48.3334 15.8628ZM40.7039 13.6667H47.5201L46.6875 11.353C45.9129 9.25497 45.0996 6.84321 44.5187 4.86282H43.7441C43.1244 6.86282 42.3111 9.25497 41.5366 11.353L40.7039 13.6667Z" fill="#002C3D"/>
<path d="M60.6685 26.4314C55.2078 26.4706 53.6006 25.2353 53.6006 23.2942C53.6006 22 54.8399 21.0981 56.8538 20.6667V20.5098C55.7694 20.2942 55.0529 19.6863 55.0529 18.6667C55.0529 17.9216 55.6725 17.2549 56.5439 16.7844L57.6283 16.0981C55.5564 15.3726 54.4332 13.7844 54.4332 11.6079C54.4332 8.27455 56.7569 6.49023 60.6879 6.49023H67.7172V8.6471H65.9744C65.1998 8.6471 64.2703 8.58827 62.9729 8.45102V8.72553C64.9481 9.13729 66.594 9.98043 66.594 12.1177C66.594 14.8432 64.4833 16.4706 60.4555 16.4706C59.526 16.4706 58.7127 16.3726 58.0156 16.1569L57.609 16.8236C57.3572 17.2353 57.183 17.5098 57.183 17.8236C57.183 18.451 57.7058 18.7059 58.6934 18.7059C60.3006 18.7059 62.0434 18.6667 63.6119 18.6667C66.5553 18.6667 68.0851 19.9608 68.0851 22.1765C68.0851 25.0589 66.2648 26.451 60.6492 26.4118L60.6685 26.4314ZM65.8776 22.2942C65.8776 21.353 65.2192 20.6275 63.6119 20.6275H58.4029C56.602 20.6275 55.7694 21.6079 55.7694 22.5098C55.7694 23.8236 56.815 24.3922 60.7654 24.3922C64.9093 24.3922 65.8776 23.6667 65.8776 22.2942ZM56.9119 11.5883C56.9119 13.4118 57.8994 14.5098 60.533 14.5098C63.1666 14.5098 64.251 13.451 64.251 11.5883C64.251 9.72553 62.9729 8.6471 60.4749 8.6471C57.9769 8.6471 56.9119 9.84318 56.9119 11.5883Z" fill="#002C3D"/>
<path d="M69.6536 13.9217C69.6536 9.01971 72.4808 6.09814 76.8378 6.09814C81.1948 6.09814 83.3442 8.80403 83.3442 12.8432C83.3442 13.2746 83.3055 13.9413 83.2474 14.6079H72.3453C72.5583 17.5883 74.1074 19.2158 76.8959 19.2158C79.4907 19.2158 80.4008 17.9021 80.8656 16.2746L83.228 16.9413C82.5115 19.7256 80.6526 21.4903 76.8959 21.4903C72.4034 21.4903 69.6342 18.7844 69.6342 13.9217H69.6536ZM72.384 12.6276H80.8462C80.73 9.84324 79.452 8.27461 76.7797 8.27461C74.1074 8.27461 72.6938 9.7256 72.384 12.6276Z" fill="#002C3D"/>
<path d="M86.3457 3.6471V1.17651H89.444V3.6471H86.3457ZM86.5393 21.1373V6.47063H89.231V21.1373H86.5393Z" fill="#002C3D"/>
<path d="M96.0085 21.1374H93.3168V6.47069H95.9504V10.2746H96.2215C97.0348 7.66677 98.9519 6.09814 101.469 6.09814C104.684 6.09814 106.155 8.2354 106.155 11.4315V21.1374H103.464V12.0981C103.464 10.0981 102.65 8.58834 100.327 8.58834C97.7513 8.58834 96.0278 10.255 96.0278 12.7648V21.1374H96.0085Z" fill="#002C3D"/>
<path d="M115.373 26.4314C109.912 26.4706 108.305 25.2353 108.305 23.2942C108.305 22 109.544 21.0981 111.558 20.6667V20.5098C110.474 20.2942 109.757 19.6863 109.757 18.6667C109.757 17.9216 110.377 17.2549 111.248 16.7844L112.333 16.0981C110.261 15.3726 109.138 13.7844 109.138 11.6079C109.138 8.27455 111.461 6.49023 115.392 6.49023H122.421V8.6471H120.679C119.904 8.6471 118.975 8.58827 117.677 8.45102V8.72553C119.652 9.13729 121.298 9.98043 121.298 12.1177C121.298 14.8432 119.188 16.4706 115.16 16.4706C114.23 16.4706 113.417 16.3726 112.72 16.1569L112.313 16.8236C112.062 17.2353 111.887 17.5098 111.887 17.8236C111.887 18.451 112.41 18.7059 113.398 18.7059C115.005 18.7059 116.748 18.6667 118.316 18.6667C121.26 18.6667 122.789 19.9608 122.789 22.1765C122.789 25.0589 120.969 26.451 115.353 26.4118L115.373 26.4314ZM120.582 22.2942C120.582 21.353 119.923 20.6275 118.316 20.6275H113.107C111.306 20.6275 110.474 21.6079 110.474 22.5098C110.474 23.8236 111.519 24.3922 115.47 24.3922C119.614 24.3922 120.582 23.6667 120.582 22.2942ZM111.616 11.5883C111.616 13.4118 112.604 14.5098 115.237 14.5098C117.871 14.5098 118.955 13.451 118.955 11.5883C118.955 9.72553 117.677 8.6471 115.179 8.6471C112.681 8.6471 111.616 9.84318 111.616 11.5883Z" fill="#002C3D"/>
<path d="M140.314 17.6473H140.043C139.327 20.059 137.468 21.4512 134.892 21.4512C132.162 21.4512 130.4 20.1963 130.4 17.3727C130.4 14.8237 132.007 12.9806 135.551 12.9806H140.198V11.7845C140.198 9.58843 139.365 8.39235 137.003 8.39235C135.047 8.39235 133.963 9.37275 133.498 11.3139L130.961 10.6865C131.542 7.86294 133.633 6.13745 137.1 6.13745C141.127 6.13745 142.89 8.11784 142.89 11.7453V21.1375H140.314V17.6473ZM140.198 15.6669V14.8433H135.957C134.059 14.8433 132.975 15.5884 132.975 17.0394C132.975 18.1963 133.692 19.2355 135.822 19.2355C138.494 19.2355 140.198 17.7257 140.198 15.6669Z" fill="#002C3D"/>
<path d="M149.241 21.1374H146.549V6.47069H149.183V10.2746H149.454C150.267 7.66677 152.185 6.09814 154.702 6.09814C157.916 6.09814 159.388 8.2354 159.388 11.4315V21.1374H156.696V12.0981C156.696 10.0981 155.883 8.58834 153.559 8.58834C150.984 8.58834 149.261 10.255 149.261 12.7648V21.1374H149.241Z" fill="#002C3D"/>
<path d="M173.098 17.2158H172.904C172.188 19.7256 170.387 21.5099 167.657 21.5099C164.132 21.5099 162.099 18.804 162.099 13.8432C162.099 8.88243 164.171 6.09812 167.715 6.09812C170.561 6.09812 172.188 7.86282 172.885 10.3726H173.079V0.980469H175.77V21.1373H173.079V17.2158H173.098ZM173.098 14.4314V13.2942C173.098 10.5099 171.452 8.58831 168.857 8.58831C166.262 8.58831 164.791 10.2746 164.791 13.8628C164.791 17.4511 166.088 19.0785 168.857 19.0785C171.433 19.0785 173.098 17.2942 173.098 14.4314Z" fill="#002C3D"/>
<path d="M196.897 15.8627H188.493L186.595 21.1373H183.613L190.836 2.31372H194.612L201.796 21.1373H198.756L196.858 15.8627H196.897ZM189.267 13.6667H196.084L195.251 11.3529C194.476 9.2549 193.663 6.84313 193.082 4.86274H192.307C191.688 6.86274 190.874 9.2549 190.1 11.3529L189.267 13.6667Z" fill="#002C3D"/>
<path d="M209.232 26.4314C203.771 26.4706 202.164 25.2353 202.164 23.2942C202.164 22 203.403 21.0981 205.417 20.6667V20.5098C204.333 20.2942 203.616 19.6863 203.616 18.6667C203.616 17.9216 204.236 17.2549 205.107 16.7844L206.192 16.0981C204.12 15.3726 202.997 13.7844 202.997 11.6079C202.997 8.27455 205.32 6.49023 209.251 6.49023H216.281V8.6471H214.538C213.763 8.6471 212.834 8.58827 211.536 8.45102V8.72553C213.511 9.13729 215.157 9.98043 215.157 12.1177C215.157 14.8432 213.047 16.4706 209.019 16.4706C208.089 16.4706 207.276 16.3726 206.579 16.1569L206.172 16.8236C205.921 17.2353 205.746 17.5098 205.746 17.8236C205.746 18.451 206.269 18.7059 207.257 18.7059C208.864 18.7059 210.607 18.6667 212.175 18.6667C215.119 18.6667 216.648 19.9608 216.648 22.1765C216.648 25.0589 214.828 26.451 209.213 26.4118L209.232 26.4314ZM214.441 22.2942C214.441 21.353 213.783 20.6275 212.175 20.6275H206.966C205.165 20.6275 204.333 21.6079 204.333 22.5098C204.333 23.8236 205.378 24.3922 209.329 24.3922C213.473 24.3922 214.441 23.6667 214.441 22.2942ZM205.475 11.5883C205.475 13.4118 206.463 14.5098 209.096 14.5098C211.73 14.5098 212.814 13.451 212.814 11.5883C212.814 9.72553 211.536 8.6471 209.038 8.6471C206.54 8.6471 205.475 9.84318 205.475 11.5883Z" fill="#002C3D"/>
<path d="M218.198 13.9217C218.198 9.01971 221.025 6.09814 225.382 6.09814C229.739 6.09814 231.888 8.80403 231.888 12.8432C231.888 13.2746 231.849 13.9413 231.791 14.6079H220.889C221.102 17.5883 222.651 19.2158 225.44 19.2158C228.035 19.2158 228.945 17.9021 229.41 16.2746L231.772 16.9413C231.056 19.7256 229.197 21.4903 225.44 21.4903C220.947 21.4903 218.178 18.7844 218.178 13.9217H218.198ZM220.928 12.6276H229.39C229.274 9.84324 227.996 8.27461 225.324 8.27461C222.651 8.27461 221.238 9.7256 220.928 12.6276Z" fill="#002C3D"/>
<path d="M244.882 17.2158H244.688C243.972 19.7256 242.171 21.5099 239.44 21.5099C235.916 21.5099 233.883 18.804 233.883 13.8432C233.883 8.88243 235.955 6.09812 239.498 6.09812C242.345 6.09812 243.972 7.86282 244.669 10.3726H244.862V0.980469H247.554V21.1373H244.862V17.2158H244.882ZM244.882 14.4314V13.2942C244.882 10.5099 243.236 8.58831 240.641 8.58831C238.046 8.58831 236.574 10.2746 236.574 13.8628C236.574 17.4511 237.872 19.0785 240.641 19.0785C243.216 19.0785 244.882 17.2942 244.882 14.4314Z" fill="#002C3D"/>
<path d="M256.462 11.6863C256.462 5.68634 259.812 1.92163 265.389 1.92163C270.133 1.92163 273.018 4.5883 273.696 9.01967L271.004 9.54908C270.346 6.27457 268.584 4.47065 265.369 4.47065C261.225 4.47065 259.327 7.41183 259.327 11.6863C259.327 16.1765 261.225 19.0001 265.311 19.0001C268.777 19.0001 270.462 17.1177 271.101 13.7648L273.793 14.2746C273.134 18.7648 270.23 21.5295 265.292 21.5295C259.618 21.5295 256.462 17.7059 256.462 11.7059V11.6863Z" fill="#002C3D"/>
<path d="M285.721 17.6473H285.45C284.733 20.059 282.875 21.4512 280.299 21.4512C277.569 21.4512 275.807 20.1963 275.807 17.3727C275.807 14.8237 277.414 12.9806 280.957 12.9806H285.605V11.7845C285.605 9.58843 284.772 8.39235 282.41 8.39235C280.454 8.39235 279.37 9.37275 278.905 11.3139L276.368 10.6865C276.949 7.86294 279.04 6.13745 282.507 6.13745C286.534 6.13745 288.297 8.11784 288.297 11.7453V21.1375H285.721V17.6473ZM285.605 15.6669V14.8433H281.364C279.466 14.8433 278.382 15.5884 278.382 17.0394C278.382 18.1963 279.098 19.2355 281.229 19.2355C283.901 19.2355 285.605 17.7257 285.605 15.6669Z" fill="#002C3D"/>
<path d="M291.937 21.1372V6.47058H294.532V10.6078L294.745 10.6471C295.481 7.45098 296.972 6.31372 299.199 6.31372H299.76V9.33333H299.024C295.887 9.33333 294.629 10.5882 294.629 13.8823V21.1372H291.937Z" fill="#002C3D"/>
<path d="M301.309 13.9217C301.309 9.01971 304.137 6.09814 308.494 6.09814C312.851 6.09814 315 8.80403 315 12.8432C315 13.2746 314.961 13.9413 314.903 14.6079H304.001C304.214 17.5883 305.763 19.2158 308.552 19.2158C311.146 19.2158 312.057 17.9021 312.521 16.2746L314.884 16.9413C314.167 19.7256 312.308 21.4903 308.552 21.4903C304.059 21.4903 301.29 18.7844 301.29 13.9217H301.309ZM304.04 12.6276H312.502C312.386 9.84324 311.108 8.27461 308.435 8.27461C305.763 8.27461 304.35 9.7256 304.04 12.6276Z" fill="#002C3D"/>
<path d="M39.2516 43.4116V51.6665H37.5088V32.843H49.1661V34.4705H39.2516V41.8234H47.9849V43.4313H39.2516V43.4116Z" fill="#002C3D"/>
<path d="M51.1219 44.3135C51.1219 39.6076 53.9491 36.8037 58.1512 36.8037C62.3532 36.8037 65.1804 39.588 65.1804 44.3135C65.1804 49.039 62.6437 51.9998 58.1512 51.9998C53.6586 51.9998 51.1219 49.0194 51.1219 44.3135ZM52.7872 44.2743C52.7872 47.9802 54.5494 50.4508 58.1124 50.4508C61.6755 50.4508 63.5151 47.9802 63.5151 44.2743C63.5151 40.5684 61.5593 38.3135 58.1512 38.3135C54.743 38.3135 52.7872 40.5684 52.7872 44.2743Z" fill="#002C3D"/>
<path d="M68.5305 51.6665V37.1371H70.1377V40.843H70.2926C70.9704 38.2939 72.5776 36.9802 74.9982 36.9802H75.6178V38.7449H74.9594C71.745 38.7449 70.1571 40.2547 70.1571 43.9802V51.6665H68.5111H68.5305Z" fill="#002C3D"/>
<path d="M86.5587 44.0979V51.6665H84.8159V32.843H91.729C95.718 32.843 97.8287 34.6862 97.8287 38.4705C97.8287 41.8822 95.6987 44.1175 91.7483 44.1175H86.5393L86.5587 44.0979ZM86.5587 34.3724V42.5685H91.5741C94.7304 42.5685 96.1053 41.3136 96.1053 38.4901C96.1053 35.6665 94.9628 34.3724 91.5547 34.3724H86.5587Z" fill="#002C3D"/>
<path d="M100.656 51.6665V37.1371H102.263V40.843H102.418C103.096 38.2939 104.703 36.9802 107.124 36.9802H107.743V38.7449H107.085C103.87 38.7449 102.283 40.2547 102.283 43.9802V51.6665H100.637H100.656Z" fill="#002C3D"/>
<path d="M109.273 44.3135C109.273 39.6076 112.1 36.8037 116.302 36.8037C120.504 36.8037 123.332 39.588 123.332 44.3135C123.332 49.039 120.795 51.9998 116.302 51.9998C111.81 51.9998 109.273 49.0194 109.273 44.3135ZM110.938 44.2743C110.938 47.9802 112.701 50.4508 116.264 50.4508C119.827 50.4508 121.666 47.9802 121.666 44.2743C121.666 40.5684 119.71 38.3135 116.302 38.3135C112.894 38.3135 110.938 40.5684 110.938 44.2743Z" fill="#002C3D"/>
<path d="M130.613 51.6666L124.377 37.1372H126.178L128.444 42.6274C129.47 45.1372 130.516 47.7647 131.29 50.1372H131.813C132.626 47.8431 133.73 45.1176 134.718 42.6274L136.925 37.1372H138.688L132.549 51.6666H130.593H130.613Z" fill="#002C3D"/>
<path d="M141.031 33.8037V31.8037H143.238V33.8037H141.031ZM141.302 51.6665V37.137H142.948V51.6665H141.302Z" fill="#002C3D"/>
<path d="M158.265 47.7058H158.149C157.432 50.1567 155.554 51.9999 152.572 51.9999C148.796 51.9999 146.685 49.2744 146.685 44.4116C146.685 39.5489 148.893 36.7842 152.63 36.8234C155.825 36.7842 157.471 38.6666 158.11 41.1567H158.265V31.5293H159.911V51.6862H158.265V47.7254V47.7058ZM158.265 44.9803V43.8822C158.265 40.5881 156.251 38.3332 153.114 38.3332C149.977 38.3332 148.35 40.3136 148.35 44.4313C148.35 48.5489 149.899 50.4901 153.114 50.4901C156.328 50.4901 158.265 48.3528 158.265 44.9999V44.9803Z" fill="#002C3D"/>
<path d="M163.242 44.3723C163.242 39.6272 166.088 36.8037 170.213 36.8037C174.337 36.8037 176.564 39.4704 176.564 43.49C176.564 43.7645 176.564 44.3331 176.525 44.8429H164.907C165.062 48.3527 166.882 50.49 170.309 50.49C173.35 50.49 174.434 48.8625 175.015 46.8233L176.506 47.2939C175.77 50.2743 173.814 51.9802 170.309 51.9802C165.817 51.9802 163.242 49.0978 163.242 44.3919V44.3723ZM164.946 43.4704H175.054C174.899 40.1763 173.466 38.2547 170.193 38.2547C167.134 38.2547 165.275 40.039 164.946 43.4704Z" fill="#002C3D"/>
<path d="M179.934 51.6665V37.1371H181.541V40.843H181.696C182.374 38.2939 183.981 36.9802 186.401 36.9802H187.021V38.7449H186.363C183.148 38.7449 181.56 40.2547 181.56 43.9802V51.6665H179.914H179.934Z" fill="#002C3D"/>
<path d="M188.144 47.0784L189.693 46.7647C190.216 48.8431 191.359 50.5686 194.709 50.5686C197.149 50.5686 198.427 49.5882 198.427 47.8431C198.427 46.098 197.226 45.4902 193.953 44.9803C190.352 44.4117 188.957 43.0588 188.957 40.8627C188.957 38.4705 190.7 36.8235 194.031 36.8235C197.362 36.8235 198.872 38.4509 199.588 41.098L198.001 41.4705C197.42 39.0784 196.18 38.2352 194.031 38.2352C191.765 38.2352 190.584 39.2156 190.584 40.7843C190.584 42.196 191.572 43.1372 194.573 43.6078C198.388 44.196 200.034 45.4509 200.034 47.8431C200.034 50.2352 198.427 52.0196 194.631 52.0196C190.487 52.0196 188.802 50.1764 188.086 47.098L188.144 47.0784Z" fill="#002C3D"/>
</g>
<defs>
<clipPath id="clip0_109_5002">
<rect width="315" height="52" fill="white"/>
</clipPath>
</defs>
</svg>
