<?xml version="1.0" encoding="utf-8"?>
<!-- Generator: Adobe Illustrator 26.0.2, SVG Export Plug-In . SVG Version: 6.00 Build 0)  -->
<svg version="1.1" xmlns="http://www.w3.org/2000/svg" xmlns:xlink="http://www.w3.org/1999/xlink"
	x="0px" y="0px"
	viewBox="0 0 28 28" style="enable-background:new 0 0 28 28;" xml:space="preserve">
<style type="text/css">
	.st0{fill:#8C5AA5;}
	.st1{fill-rule:evenodd;clip-rule:evenodd;fill:#8C5AA5;}
	.st2{fill:#ffffff;}
</style>
<path class="st0" d="M0,14C0,6.3,6.2,0,14,0c7.7,0,14,6.3,14,14c0,7.8-6.3,14-14,14C6.2,28,0,21.8,0,14z M19.4,11.9
	c0.5-0.5,0.5-1.3,0-1.8c-0.5-0.5-1.3-0.5-1.8,0l-5.1,5.1l-2.1-2.1c-0.5-0.5-1.3-0.5-1.8,0s-0.5,1.3,0,1.8l3,3c0.5,0.5,1.3,0.5,1.8,0
	L19.4,11.9z"/>
<path class="st1" d="M0,14C0,6.3,6.2,0,14,0c7.7,0,14,6.3,14,14c0,7.8-6.3,14-14,14C6.2,28,0,21.8,0,14z M10.4,13.1l2.1,2.1l5.1-5.1
	c0.5-0.5,1.3-0.5,1.8,0c0.5,0.5,0.5,1.3,0,1.8l-6,6c-0.5,0.5-1.3,0.5-1.8,0l-3-3c-0.5-0.5-0.5-1.3,0-1.8S9.9,12.6,10.4,13.1z M14,2
	C7.3,2,2,7.4,2,14c0,6.7,5.3,12,12,12c6.6,0,12-5.3,12-12C26,7.4,20.6,2,14,2z"/>
<path class="st2" d="M19.4,10.1c0.5,0.5,0.5,1.3,0,1.8l-6,6c-0.5,0.5-1.3,0.5-1.8,0l-3-3c-0.5-0.5-0.5-1.3,0-1.8s1.3-0.5,1.8,0
	l2.1,2.1l5.1-5.1C18.1,9.6,18.9,9.6,19.4,10.1z"/>
</svg>