<svg width="72" height="70" viewBox="0 0 72 70" fill="none" xmlns="http://www.w3.org/2000/svg">
<path d="M62.3582 0H9.64176C4.69959 0 0.855682 3.98119 0.855682 8.78608V48.1861C0.855682 52.991 4.69959 56.8349 9.64176 56.8349H22.8209V68.3667C22.8209 69.7395 24.331 70.4259 25.4292 69.6022L42.5895 56.8349H62.3582C67.1631 56.8349 71.1443 52.8537 71.1443 48.1861V8.78608C71.1443 3.98119 67.3004 0 62.3582 0ZM66.8885 48.3234C66.8885 50.7945 64.8293 52.7165 62.4955 52.7165H42.5895C41.6286 52.7165 40.8049 53.1283 39.9812 53.6774L27.3512 63.1499V54.913C27.3512 53.8147 26.2529 52.7165 25.1547 52.7165H9.77904C7.30796 52.7165 5.386 50.7945 5.386 48.3234V8.78608C5.386 6.45228 7.30796 4.39304 9.77904 4.39304H62.4955C64.8293 4.39304 66.8885 6.45228 66.8885 8.78608V48.3234Z" fill="#8C5AA5"/>
<path d="M31.6202 42.2L34.7202 13.6V13H25.3202L14.5202 42.2H31.6202ZM51.3202 42.2L54.4202 13.6V13H45.0202L34.2202 42.2H51.3202Z" fill="#8C5AA5"/>
</svg>
