<svg width="28" height="28" viewBox="0 0 28 28" fill="none" xmlns="http://www.w3.org/2000/svg">
<path d="M8.5625 2.98438C9.21875 2.32812 10.0625 2 10.9531 2H17C17.8906 2 18.7344 2.32812 19.3906 2.98438L24.9688 8.5625C25.625 9.21875 25.9531 10.0625 25.9531 10.9531V17C25.9531 17.8906 25.625 18.7344 24.9688 19.3906L19.3906 24.9688C18.7344 25.625 17.8906 25.9531 17 25.9531H10.9531C10.0625 25.9531 9.21875 25.625 8.5625 24.9688L2.98438 19.3906C2.32812 18.7344 2 17.8906 2 17V10.9531C2 10.0625 2.32812 9.21875 2.98438 8.5625L8.5625 2.98438ZM10.2031 11.75L12.4062 13.9531L10.2031 16.1562C9.73438 16.625 9.73438 17.3281 10.2031 17.75C10.625 18.2188 11.3281 18.2188 11.75 17.75L14 15.5469L16.2031 17.75C16.625 18.2188 17.3281 18.2188 17.75 17.75C18.2188 17.3281 18.2188 16.625 17.75 16.1562L15.5469 13.9531L17.75 11.75C18.2188 11.3281 18.2188 10.625 17.75 10.1562C17.3281 9.73438 16.625 9.73438 16.2031 10.1562L14 12.4062L11.75 10.1562C11.3281 9.73438 10.625 9.73438 10.2031 10.1562C9.73438 10.625 9.73438 11.3281 10.2031 11.75Z" fill="#1E1544"/>
<path fill-rule="evenodd" clip-rule="evenodd" d="M16.2031 10.1562C16.625 9.73438 17.3281 9.73438 17.75 10.1562C18.2188 10.625 18.2188 11.3281 17.75 11.75L15.5469 13.9531L17.75 16.1562C18.2188 16.625 18.2188 17.3281 17.75 17.75C17.3281 18.2188 16.625 18.2188 16.2031 17.75L14 15.5469L11.75 17.75C11.3281 18.2188 10.625 18.2188 10.2031 17.75C9.73438 17.3281 9.73438 16.625 10.2031 16.1562L12.4062 13.9531L10.2031 11.75C9.73438 11.3281 9.73438 10.625 10.2031 10.1562C10.625 9.73438 11.3281 9.73438 11.75 10.1562L14 12.4062L16.2031 10.1562ZM7.14829 1.57016C8.19419 0.524261 9.55305 0 10.9531 0H17C18.4001 0 19.7589 0.524261 20.8048 1.57016L26.383 7.14829C27.4289 8.19419 27.9531 9.55304 27.9531 10.9531V17C27.9531 18.4001 27.4289 19.7589 26.383 20.8048L20.8048 26.383C19.7589 27.4289 18.4001 27.9531 17 27.9531H10.9531C9.55305 27.9531 8.19419 27.4289 7.14829 26.383L1.57016 20.8048C0.524261 19.7589 0 18.4001 0 17V10.9531C0 9.55304 0.524261 8.19419 1.57016 7.14829L7.14829 1.57016ZM10.9531 2C10.0625 2 9.21875 2.32812 8.5625 2.98438L2.98438 8.5625C2.32812 9.21875 2 10.0625 2 10.9531V17C2 17.8906 2.32812 18.7344 2.98438 19.3906L8.5625 24.9688C9.21875 25.625 10.0625 25.9531 10.9531 25.9531H17C17.8906 25.9531 18.7344 25.625 19.3906 24.9688L24.9688 19.3906C25.625 18.7344 25.9531 17.8906 25.9531 17V10.9531C25.9531 10.0625 25.625 9.21875 24.9688 8.5625L19.3906 2.98438C18.7344 2.32812 17.8906 2 17 2H10.9531Z" fill="#1E1544"/>
<path d="M13.9531 12.4062L16.2031 10.1562C16.625 9.73438 17.3281 9.73438 17.75 10.1562C18.2188 10.625 18.2188 11.3281 17.75 11.75L15.5469 13.9531L17.75 16.1562C18.2188 16.625 18.2188 17.3281 17.75 17.75C17.3281 18.2188 16.625 18.2188 16.2031 17.75L13.9531 15.5469L11.75 17.75C11.3281 18.2188 10.625 18.2188 10.2031 17.75C9.73438 17.3281 9.73438 16.625 10.2031 16.1562L12.4062 13.9531L10.2031 11.75C9.73438 11.3281 9.73438 10.625 10.2031 10.1562C10.625 9.73438 11.3281 9.73438 11.75 10.1562L13.9531 12.4062Z" fill="white"/>
</svg>
